<svg width="138" height="73" viewBox="0 0 138 73" fill="none" xmlns="http://www.w3.org/2000/svg">
<path d="M56.6183 49.2562L77.8058 29.652C82.2642 25.5062 83.9933 21.8812 83.9933 16.7979C83.9933 7.75619 76.8475 0.610352 67.8683 0.610352C58.8475 0.610352 51.6392 7.75619 51.6392 16.7979C51.6392 25.5687 58.8475 32.8395 67.5558 32.8395C69.535 32.8395 70.9933 32.5687 72.785 31.8812L55.3267 47.9229L56.6183 49.2562ZM67.7433 31.2354C59.785 31.2354 53.4933 24.8187 53.4933 16.7979C53.4933 8.69369 59.785 2.33952 67.7433 2.33952C75.8267 2.33952 82.1392 8.77702 82.1392 16.8604C82.1392 24.8812 75.7642 31.2354 67.7433 31.2354Z" fill="black"/>
<path d="M22.6154 41.063C22.5737 41.5109 22.4071 42.0161 22.1154 42.5838C21.8237 43.1411 21.4175 43.6984 20.9071 44.2505C20.3914 44.8078 19.7716 45.3286 19.0529 45.813C18.3289 46.2869 17.5112 46.6672 16.5946 46.9588C15.6779 47.2401 14.6779 47.3755 13.5946 47.3755C12.1466 47.3755 10.7716 47.1619 9.46956 46.7297C8.1779 46.2869 6.9904 45.6619 5.90706 44.8547C4.82373 44.0369 3.87581 43.0786 3.07373 41.9797C2.28206 40.8859 1.66227 39.6828 1.21956 38.3755C0.787272 37.0578 0.57373 35.6776 0.57373 34.2297C0.57373 32.7713 0.787272 31.3911 1.21956 30.0838C1.66227 28.7661 2.28206 27.5578 3.07373 26.4588C3.87581 25.3651 4.82373 24.4119 5.90706 23.6047C6.9904 22.8026 8.1779 22.1776 9.46956 21.7297C10.7716 21.2869 12.1466 21.063 13.5946 21.063C14.7039 21.063 15.7091 21.1776 16.6154 21.3963C17.5164 21.6047 18.3237 21.8755 19.0321 22.2088C19.7404 22.5422 20.355 22.8911 20.8862 23.2505C21.4279 23.5994 21.8914 23.9172 22.2821 24.2088C22.6831 24.5005 23.0216 24.7088 23.3029 24.8338L20.4071 27.3755C20.5164 26.6984 20.4331 26.0422 20.1571 25.4172C19.8914 24.7922 19.4487 24.2401 18.8237 23.7505C18.1987 23.2661 17.4279 22.8859 16.5112 22.6047C15.605 22.3286 14.5789 22.188 13.4279 22.188C12.2716 22.188 11.1779 22.3963 10.1362 22.813C9.09456 23.2192 8.13623 23.7869 7.26123 24.5213C6.38623 25.2609 5.62061 26.1255 4.96956 27.1255C4.32894 28.1151 3.83415 29.2088 3.4904 30.4172C3.14144 31.6151 2.96956 32.8703 2.96956 34.188C2.96956 35.5213 3.14144 36.7869 3.4904 37.9797C3.83415 39.1776 4.32894 40.2713 4.96956 41.2713C5.62061 42.2713 6.38623 43.1411 7.26123 43.8755C8.13623 44.5994 9.09456 45.1619 10.1362 45.563C11.1779 45.9692 12.2716 46.1672 13.4279 46.1672C14.5789 46.1672 15.6154 46.0317 16.5321 45.7505C17.4591 45.4744 18.2821 45.1151 18.9904 44.6672C19.7091 44.2244 20.3133 43.7661 20.8029 43.2922C21.3029 42.8078 21.6987 42.3703 21.9904 41.9797C22.2925 41.5786 22.5008 41.2713 22.6154 41.063Z" fill="black"/>
<path d="M43.3395 47.4588H24.7979C24.7979 47.4588 24.8656 47.4328 25.0062 47.3755C25.1572 47.3234 25.3239 47.2036 25.5062 47.0213C25.6833 46.8442 25.8447 46.563 25.9854 46.188C26.1208 45.813 26.1937 45.3026 26.1937 44.6463V23.8755C26.1937 23.2401 26.1208 22.7297 25.9854 22.3547C25.8447 21.9797 25.6833 21.7036 25.5062 21.5213C25.3239 21.3286 25.1572 21.2036 25.0062 21.1463C24.8656 21.0942 24.7979 21.063 24.7979 21.063H29.902C29.902 21.063 29.8291 21.0942 29.6937 21.1463C29.5531 21.188 29.3864 21.3078 29.1937 21.5005C29.0114 21.6828 28.8447 21.9692 28.6937 22.3547C28.5531 22.7297 28.4854 23.2453 28.4854 23.8963V44.6463C28.4854 44.8963 28.4906 45.1567 28.5062 45.4172C28.5322 45.6672 28.5999 45.8859 28.7145 46.063C28.8239 46.2297 29.0062 46.313 29.2562 46.313C29.2562 46.313 29.4697 46.313 29.902 46.313C30.3291 46.313 31.0166 46.313 31.9645 46.313C32.9229 46.313 34.1989 46.313 35.7979 46.313C37.1416 46.313 38.2666 46.2297 39.1729 46.063C40.0739 45.8963 40.8031 45.6984 41.3604 45.4588C41.9124 45.2088 42.3291 44.9588 42.6104 44.7088C42.902 44.4588 43.0947 44.2505 43.1937 44.0838C43.2874 43.9172 43.3395 43.8338 43.3395 43.8338V47.4588Z" fill="black"/>
<path d="M110.976 37.9172V23.8755C110.976 23.2401 110.898 22.7297 110.747 22.3547C110.606 21.9797 110.439 21.7036 110.247 21.5213C110.064 21.3286 109.903 21.2036 109.767 21.1463C109.627 21.0942 109.559 21.063 109.559 21.063H113.455C113.455 21.063 113.382 21.0942 113.247 21.1463C113.106 21.188 112.939 21.3078 112.747 21.5005C112.549 21.6828 112.382 21.9692 112.247 22.3547C112.106 22.7297 112.038 23.2453 112.038 23.8963V38.0422C112.038 39.8234 111.861 41.3078 111.517 42.5005C111.168 43.6984 110.627 44.6567 109.892 45.3755C109.168 46.0838 108.252 46.5994 107.142 46.9172C106.028 47.2244 104.715 47.3755 103.205 47.3755C101.747 47.3755 100.418 47.2244 99.2257 46.9172C98.0278 46.5994 97.007 46.0786 96.1632 45.3547C95.3143 44.6359 94.6632 43.6672 94.2049 42.4588C93.7466 41.2505 93.5174 39.7661 93.5174 38.0005V23.8755C93.5174 23.2401 93.4445 22.7297 93.3091 22.3547C93.1685 21.9797 93.007 21.7036 92.8299 21.5213C92.6476 21.3286 92.481 21.2036 92.3299 21.1463C92.1893 21.0942 92.1216 21.063 92.1216 21.063H97.2882C97.2882 21.063 97.2153 21.0942 97.0799 21.1463C96.9393 21.188 96.7778 21.3078 96.6007 21.5005C96.4185 21.6828 96.2518 21.9692 96.1007 22.3547C95.9445 22.7297 95.8716 23.2453 95.8716 23.8963V37.9797C95.8716 39.6203 96.0643 40.9797 96.4549 42.063C96.856 43.1359 97.3976 43.9797 98.0799 44.6047C98.7726 45.2192 99.5591 45.6567 100.434 45.9172C101.309 46.1672 102.231 46.2922 103.205 46.2922C104.481 46.2922 105.601 46.1672 106.559 45.9172C107.528 45.6567 108.34 45.2088 108.997 44.5838C109.648 43.9588 110.142 43.1047 110.476 42.0213C110.809 40.938 110.976 39.5734 110.976 37.9172Z" fill="black"/>
<path d="M121.823 21.063C123.833 21.063 125.656 21.2922 127.281 21.7505C128.906 22.2088 130.328 22.8494 131.552 23.6672C132.771 24.4901 133.802 25.4536 134.635 26.563C135.469 27.6776 136.094 28.8911 136.51 30.2088C136.927 31.5161 137.135 32.8755 137.135 34.2922C137.135 36.0838 136.802 37.7713 136.135 39.3547C135.479 40.938 134.51 42.3442 133.219 43.563C131.937 44.7713 130.344 45.7244 128.427 46.4172C126.521 47.1151 124.323 47.4588 121.823 47.4588H114.948C114.948 47.4588 115.015 47.4328 115.156 47.3755C115.307 47.3234 115.474 47.2036 115.656 47.0213C115.833 46.8442 115.995 46.563 116.135 46.188C116.271 45.813 116.344 45.3026 116.344 44.6463V23.8755C116.344 23.2401 116.271 22.7297 116.135 22.3547C115.995 21.9797 115.833 21.7036 115.656 21.5213C115.474 21.3286 115.307 21.2036 115.156 21.1463C115.015 21.0942 114.948 21.063 114.948 21.063C114.948 21.063 115.245 21.063 115.844 21.063C116.437 21.063 117.25 21.063 118.281 21.063C119.323 21.063 120.5 21.063 121.823 21.063ZM121.823 46.313C123.724 46.313 125.458 46.0526 127.031 45.5213C128.614 44.9797 129.979 44.2036 131.135 43.188C132.302 42.1619 133.203 40.9067 133.844 39.4172C134.479 37.9328 134.802 36.2401 134.802 34.3338C134.802 32.4328 134.458 30.7401 133.781 29.2505C133.114 27.7661 132.182 26.5005 130.989 25.4588C129.792 24.4172 128.411 23.6359 126.844 23.1047C125.271 22.563 123.599 22.2922 121.823 22.2922H119.969C119.87 22.2922 119.708 22.3286 119.489 22.3963C119.265 22.4692 119.062 22.6203 118.885 22.8547C118.719 23.0786 118.635 23.4276 118.635 23.8963C118.635 23.8963 118.635 23.9276 118.635 23.9797C118.635 24.0213 118.635 24.1619 118.635 24.3963C118.635 24.6203 118.635 25.0005 118.635 25.5422C118.635 26.0734 118.635 26.813 118.635 27.7713C118.635 28.7297 118.635 29.9588 118.635 31.4588C118.635 32.9588 118.635 34.7922 118.635 36.9588C118.635 39.1151 118.635 41.6776 118.635 44.6463C118.635 45.0786 118.698 45.4119 118.823 45.6463C118.958 45.8703 119.12 46.0317 119.302 46.1255C119.479 46.2244 119.635 46.2817 119.76 46.2922C119.896 46.3078 119.969 46.313 119.969 46.313H121.823Z" fill="black"/>
<path d="M20.8755 58.7941C20.8755 58.6274 20.9276 58.4764 21.0213 58.3358C21.6047 57.3774 22.2453 56.4399 22.938 55.5233C23.6151 54.6066 24.2974 53.6795 24.9797 52.7316L26.938 50.1066C27.214 49.7472 27.5317 49.5649 27.8963 49.5649C28.1151 49.5649 28.3807 49.7733 28.688 50.1899C28.714 50.2056 28.7609 50.2472 28.8338 50.3149C28.9172 50.3879 29.0057 50.4191 29.1047 50.4191C29.1984 50.4191 29.3234 50.3774 29.4797 50.2941C29.7817 50.117 30.1515 49.9816 30.5838 49.8983C31.0265 49.8045 31.4067 49.7524 31.7297 49.7524C32.0317 49.7524 32.313 49.7941 32.563 49.8774C32.8234 49.9504 33.0213 50.1274 33.1463 50.4191L33.2297 50.5649C33.3547 50.8149 33.5213 50.9399 33.7297 50.9399C33.8547 50.9399 33.9692 50.9191 34.0838 50.8774C34.1932 50.8254 34.313 50.7524 34.438 50.6691C34.8807 50.3931 35.3807 50.1691 35.938 50.0024C36.4901 49.8254 37.0005 49.7316 37.4588 49.7316C37.9692 49.7316 38.4015 49.867 38.7505 50.1274C39.1099 50.3931 39.2922 50.8045 39.2922 51.3566C39.2922 51.9295 39.063 52.5962 38.6047 53.3566L36.438 56.3149C36.1724 56.6795 35.9901 56.992 35.8963 57.2524C35.7974 57.5181 35.7505 57.7264 35.7505 57.8774C35.7505 58.117 35.8599 58.2316 36.0838 58.2316C36.3599 58.2316 36.7297 58.1014 37.188 57.8358C37.6463 57.5597 38.1255 57.2264 38.6255 56.8358C39.1255 56.4504 39.5682 56.0754 39.9588 55.7108C40.3442 55.3514 40.6151 55.0962 40.7713 54.9399C41.1567 54.5649 41.4901 54.3774 41.7713 54.3774C42.1307 54.3774 42.313 54.5337 42.313 54.8358C42.313 55.0597 42.1776 55.3149 41.9172 55.6066L41.8963 55.6274C41.4067 56.117 40.7974 56.6691 40.063 57.2941C39.339 57.9191 38.5734 58.4608 37.7713 58.9191C36.9797 59.3774 36.2297 59.6066 35.5213 59.6066C34.4484 59.6066 33.9172 59.1222 33.9172 58.1483C33.9172 57.4972 34.1776 56.7316 34.7088 55.8566C34.9432 55.4816 35.2088 55.0858 35.5005 54.6691C35.7922 54.242 36.063 53.867 36.313 53.5441L36.8547 52.8149C37.0317 52.5806 37.1463 52.3879 37.188 52.2316C37.2401 52.0649 37.2713 51.9295 37.2713 51.8149C37.2713 51.5129 37.1047 51.3566 36.7713 51.3566C36.313 51.3566 35.813 51.5181 35.2713 51.8358C34.7401 52.1587 34.2401 52.5337 33.7713 52.9608C33.313 53.3774 32.9172 53.7629 32.5838 54.1066L28.9172 59.2108C28.6932 59.5181 28.4276 59.6691 28.1255 59.6691C27.8859 59.6691 27.6776 59.5858 27.5005 59.4191C27.3182 59.242 27.2297 59.0337 27.2297 58.7941C27.2297 58.6274 27.2817 58.4764 27.3963 58.3358L30.9797 53.2733C31.1567 53.0649 31.2505 52.7941 31.2505 52.4608C31.2505 52.1847 31.1567 51.9556 30.9797 51.7733C30.7974 51.5806 30.5213 51.4816 30.1463 51.4816C29.6047 51.4816 28.9224 51.7472 28.1047 52.2733C27.2974 52.7889 26.4067 53.6899 25.438 54.9816L22.5422 59.2108C22.3234 59.5181 22.0578 59.6691 21.7505 59.6691C21.5161 59.6691 21.313 59.5858 21.1463 59.4191C20.9692 59.242 20.8755 59.0337 20.8755 58.7941Z" fill="#D9B056"/>
<path d="M40.0107 57.3566C40.0107 56.5389 40.3024 55.6847 40.8857 54.7941C41.4691 53.9087 42.2191 53.0754 43.1357 52.2941C44.0524 51.5181 45.0107 50.8931 46.0107 50.4191C47.0212 49.9347 47.9326 49.6899 48.7399 49.6899C49.0993 49.6899 49.4378 49.742 49.7607 49.8358C50.0785 49.9347 50.3962 50.0545 50.7191 50.1899L50.9274 50.2524C51.1462 50.367 51.3649 50.4608 51.5732 50.5441C51.792 50.617 52.0837 50.6483 52.4482 50.6483C52.5993 50.5962 52.7087 50.5649 52.7816 50.5649C53.042 50.5649 53.266 50.6587 53.4482 50.8358C53.641 51.0024 53.7399 51.2056 53.7399 51.4399C53.7399 51.5389 53.6982 51.6587 53.6149 51.7941C53.542 51.9191 53.4066 52.0649 53.1982 52.2316C52.9482 52.4139 52.6201 52.7056 52.2191 53.1066C51.8285 53.4972 51.4378 53.9399 51.0524 54.4399C50.6618 54.9295 50.3285 55.4295 50.0524 55.9399C49.7868 56.4556 49.6566 56.9139 49.6566 57.3149C49.6566 57.4972 49.7035 57.6639 49.8024 57.8149C49.9118 57.9712 50.1357 58.0441 50.4691 58.0441C51.0524 58.0441 51.6774 57.8358 52.3441 57.4191C53.0212 56.992 53.6618 56.5233 54.2607 56.0233C54.8545 55.5129 55.3232 55.117 55.6566 54.8358C55.9326 54.6014 56.167 54.4816 56.3649 54.4816C56.7503 54.4816 56.9482 54.6795 56.9482 55.0649C56.9482 55.2733 56.8441 55.4764 56.6357 55.6691C56.0524 56.1847 55.3493 56.7733 54.5316 57.4399C53.7243 58.0962 52.8857 58.6587 52.0107 59.1274C51.1462 59.6014 50.3285 59.8358 49.5524 59.8358C49.0107 59.8358 48.5316 59.7056 48.1149 59.4399C47.6982 59.1639 47.4118 58.7889 47.2607 58.3149C47.1774 58.1379 47.0368 58.0441 46.8441 58.0441C46.6618 58.0441 46.4482 58.1066 46.1982 58.2316C45.9587 58.3566 45.7035 58.5129 45.4274 58.6899L44.5941 59.2108C44.2035 59.4764 43.8285 59.6431 43.4691 59.7108C43.1201 59.7681 42.792 59.7941 42.4899 59.7941C41.7503 59.7941 41.1566 59.5649 40.6982 59.1066C40.2399 58.6483 40.0107 58.0649 40.0107 57.3566ZM42.1357 56.5441C42.1357 57.367 42.5576 57.7733 43.4066 57.7733C43.9066 57.7733 44.5212 57.5754 45.2607 57.1691C46.0107 56.7524 46.7399 56.242 47.4482 55.6274C48.1566 55.0024 48.7451 54.367 49.2191 53.7108C49.6878 53.0597 49.9274 52.5024 49.9274 52.0441C49.9274 51.7004 49.8076 51.4347 49.5732 51.2524C49.3493 51.0754 49.0576 50.9816 48.6982 50.9816C48.167 50.9816 47.5368 51.1639 46.8024 51.5233C46.0628 51.8722 45.3337 52.3306 44.6149 52.8983C43.9066 53.4556 43.3128 54.0597 42.8441 54.7108C42.3701 55.3514 42.1357 55.9608 42.1357 56.5441Z" fill="#D9B056"/>
<path d="M53.6577 58.5649C53.6577 57.9139 53.9806 57.5858 54.616 57.5858C55.1473 57.5858 55.5015 57.8514 55.6785 58.3774C55.8035 58.7108 56.0171 58.9608 56.3244 59.1274C56.6265 59.2941 56.9494 59.3774 57.2827 59.3774C57.866 59.3774 58.4338 59.1899 58.991 58.8149C59.5588 58.4295 59.8452 57.9399 59.8452 57.3566C59.8452 57.0962 59.7879 56.7056 59.6785 56.1899C59.5796 55.6639 59.4494 55.1795 59.2827 54.7316C59.116 54.2889 58.9181 54.0649 58.6994 54.0649C58.5431 54.0649 58.2619 54.2004 57.8452 54.4608C57.439 54.7108 57.0535 55.0962 56.6785 55.6066C56.564 55.7629 56.4181 55.8358 56.241 55.8358C56.0744 55.8358 55.9181 55.7681 55.7827 55.6274C55.6473 55.4764 55.5744 55.3149 55.5744 55.1483C55.5744 55.0129 55.6108 54.9087 55.6785 54.8358L57.1994 53.3149L58.491 51.8983C58.9338 51.4712 59.3556 51.0389 59.7619 50.6066C60.1629 50.1795 60.5796 49.8097 61.0119 49.5024C61.314 49.2941 61.6473 49.1066 62.0119 48.9399C62.3869 48.7733 62.741 48.6899 63.0744 48.6899C63.3504 48.6899 63.6004 48.7681 63.8244 48.9191C64.0588 49.0754 64.1785 49.3045 64.1785 49.6066C64.1785 49.8879 64.0952 50.0754 63.9285 50.1691C63.7723 50.2524 63.6265 50.3254 63.491 50.3774C62.7098 50.6274 62.1056 50.9764 61.6785 51.4191C61.2619 51.867 61.0535 52.4712 61.0535 53.2316C61.0535 53.4139 61.0744 53.7056 61.116 54.1066C61.1577 54.5129 61.2202 54.9347 61.3035 55.3774C61.3869 55.8097 61.5171 56.1795 61.6994 56.4816C61.8765 56.7889 62.1056 56.9399 62.3869 56.9399C62.6473 56.9399 62.9702 56.8306 63.3452 56.6066C63.7202 56.3722 64.116 56.0858 64.5327 55.7524C64.9598 55.4191 65.3296 55.1014 65.6369 54.7941V54.7524C65.7619 54.6274 65.9285 54.5649 66.1369 54.5649C66.3296 54.5649 66.491 54.6274 66.616 54.7524C66.7515 54.867 66.8244 54.9972 66.8244 55.1483C66.8244 55.3149 66.7463 55.4764 66.5952 55.6274L66.5119 55.6691C66.1473 56.0337 65.6681 56.4399 65.0744 56.8983C64.4754 57.3566 63.8556 57.8097 63.2202 58.2524C62.5952 58.7004 62.0223 59.0858 61.5119 59.4191C61.0119 59.742 60.6577 59.9556 60.4494 60.0649C60.0171 60.3983 59.5327 60.6639 58.991 60.8566C58.4598 61.0389 57.939 61.1274 57.4285 61.1274C56.8973 61.1274 56.3452 61.0337 55.7619 60.8358C55.1785 60.6274 54.689 60.3358 54.2827 59.9608C53.866 59.5754 53.6577 59.1066 53.6577 58.5649Z" fill="#D9B056"/>
<path d="M63.5708 58.5649C63.5708 57.9139 63.8937 57.5858 64.5291 57.5858C65.0604 57.5858 65.4146 57.8514 65.5916 58.3774C65.7166 58.7108 65.9302 58.9608 66.2375 59.1274C66.5396 59.2941 66.8625 59.3774 67.1958 59.3774C67.7791 59.3774 68.3468 59.1899 68.9041 58.8149C69.4718 58.4295 69.7583 57.9399 69.7583 57.3566C69.7583 57.0962 69.701 56.7056 69.5916 56.1899C69.4927 55.6639 69.3625 55.1795 69.1958 54.7316C69.0291 54.2889 68.8312 54.0649 68.6125 54.0649C68.4562 54.0649 68.175 54.2004 67.7583 54.4608C67.3521 54.7108 66.9666 55.0962 66.5916 55.6066C66.4771 55.7629 66.3312 55.8358 66.1541 55.8358C65.9875 55.8358 65.8312 55.7681 65.6958 55.6274C65.5604 55.4764 65.4875 55.3149 65.4875 55.1483C65.4875 55.0129 65.5239 54.9087 65.5916 54.8358L67.1125 53.3149L68.4041 51.8983C68.8468 51.4712 69.2687 51.0389 69.675 50.6066C70.076 50.1795 70.4927 49.8097 70.925 49.5024C71.2271 49.2941 71.5604 49.1066 71.925 48.9399C72.3 48.7733 72.6541 48.6899 72.9875 48.6899C73.2635 48.6899 73.5135 48.7681 73.7375 48.9191C73.9718 49.0754 74.0916 49.3045 74.0916 49.6066C74.0916 49.8879 74.0083 50.0754 73.8416 50.1691C73.6854 50.2524 73.5396 50.3254 73.4041 50.3774C72.6229 50.6274 72.0187 50.9764 71.5916 51.4191C71.175 51.867 70.9666 52.4712 70.9666 53.2316C70.9666 53.4139 70.9875 53.7056 71.0291 54.1066C71.0708 54.5129 71.1333 54.9347 71.2166 55.3774C71.3 55.8097 71.4302 56.1795 71.6125 56.4816C71.7896 56.7889 72.0187 56.9399 72.3 56.9399C72.5604 56.9399 72.8833 56.8306 73.2583 56.6066C73.6333 56.3722 74.0291 56.0858 74.4458 55.7524C74.8729 55.4191 75.2427 55.1014 75.55 54.7941V54.7524C75.675 54.6274 75.8416 54.5649 76.05 54.5649C76.2427 54.5649 76.4041 54.6274 76.5291 54.7524C76.6646 54.867 76.7375 54.9972 76.7375 55.1483C76.7375 55.3149 76.6593 55.4764 76.5083 55.6274L76.425 55.6691C76.0604 56.0337 75.5812 56.4399 74.9875 56.8983C74.3885 57.3566 73.7687 57.8097 73.1333 58.2524C72.5083 58.7004 71.9354 59.0858 71.425 59.4191C70.925 59.742 70.5708 59.9556 70.3625 60.0649C69.9302 60.3983 69.4458 60.6639 68.9041 60.8566C68.3729 61.0389 67.8521 61.1274 67.3416 61.1274C66.8104 61.1274 66.2583 61.0337 65.675 60.8358C65.0916 60.6274 64.6021 60.3358 64.1958 59.9608C63.7791 59.5754 63.5708 59.1066 63.5708 58.5649Z" fill="#D9B056"/>
<path d="M74.6294 57.3566C74.6294 56.5389 74.9211 55.6847 75.5044 54.7941C76.0877 53.9087 76.8377 53.0754 77.7544 52.2941C78.6711 51.5181 79.6294 50.8931 80.6294 50.4191C81.6398 49.9347 82.5513 49.6899 83.3586 49.6899C83.7179 49.6899 84.0565 49.742 84.3794 49.8358C84.6971 49.9347 85.0148 50.0545 85.3377 50.1899L85.5461 50.2524C85.7648 50.367 85.9836 50.4608 86.1919 50.5441C86.4106 50.617 86.7023 50.6483 87.0669 50.6483C87.2179 50.5962 87.3273 50.5649 87.4002 50.5649C87.6606 50.5649 87.8846 50.6587 88.0669 50.8358C88.2596 51.0024 88.3586 51.2056 88.3586 51.4399C88.3586 51.5389 88.3169 51.6587 88.2336 51.7941C88.1606 51.9191 88.0252 52.0649 87.8169 52.2316C87.5669 52.4139 87.2388 52.7056 86.8377 53.1066C86.4471 53.4972 86.0565 53.9399 85.6711 54.4399C85.2804 54.9295 84.9471 55.4295 84.6711 55.9399C84.4054 56.4556 84.2752 56.9139 84.2752 57.3149C84.2752 57.4972 84.3221 57.6639 84.4211 57.8149C84.5304 57.9712 84.7544 58.0441 85.0877 58.0441C85.6711 58.0441 86.2961 57.8358 86.9627 57.4191C87.6398 56.992 88.2804 56.5233 88.8794 56.0233C89.4731 55.5129 89.9419 55.117 90.2752 54.8358C90.5513 54.6014 90.7856 54.4816 90.9836 54.4816C91.369 54.4816 91.5669 54.6795 91.5669 55.0649C91.5669 55.2733 91.4627 55.4764 91.2544 55.6691C90.6711 56.1847 89.9679 56.7733 89.1502 57.4399C88.3429 58.0962 87.5044 58.6587 86.6294 59.1274C85.7648 59.6014 84.9471 59.8358 84.1711 59.8358C83.6294 59.8358 83.1502 59.7056 82.7336 59.4399C82.3169 59.1639 82.0304 58.7889 81.8794 58.3149C81.7961 58.1379 81.6554 58.0441 81.4627 58.0441C81.2804 58.0441 81.0669 58.1066 80.8169 58.2316C80.5773 58.3566 80.3221 58.5129 80.0461 58.6899L79.2127 59.2108C78.8221 59.4764 78.4471 59.6431 78.0877 59.7108C77.7388 59.7681 77.4106 59.7941 77.1086 59.7941C76.369 59.7941 75.7752 59.5649 75.3169 59.1066C74.8586 58.6483 74.6294 58.0649 74.6294 57.3566ZM76.7544 56.5441C76.7544 57.367 77.1763 57.7733 78.0252 57.7733C78.5252 57.7733 79.1398 57.5754 79.8794 57.1691C80.6294 56.7524 81.3586 56.242 82.0669 55.6274C82.7752 55.0024 83.3638 54.367 83.8377 53.7108C84.3065 53.0597 84.5461 52.5024 84.5461 52.0441C84.5461 51.7004 84.4263 51.4347 84.1919 51.2524C83.9679 51.0754 83.6763 50.9816 83.3169 50.9816C82.7856 50.9816 82.1554 51.1639 81.4211 51.5233C80.6815 51.8722 79.9523 52.3306 79.2336 52.8983C78.5252 53.4556 77.9315 54.0597 77.4627 54.7108C76.9888 55.3514 76.7544 55.9608 76.7544 56.5441Z" fill="#D9B056"/>
<path d="M84.1097 72.6899C83.1253 72.6899 82.3337 72.4087 81.7347 71.8566C81.1409 71.3149 80.8389 70.6379 80.8389 69.8358C80.8389 69.1691 81.0628 68.4504 81.5055 67.6899C81.9535 66.9243 82.6826 66.1899 83.693 65.4816C84.5837 64.841 85.5837 64.2993 86.693 63.8566C87.8076 63.4087 88.9743 62.9451 90.193 62.4608L93.7764 61.0233C93.8701 60.9712 94.068 60.8566 94.3597 60.6899C94.6514 60.5233 94.9326 60.242 95.2139 59.8358L95.9847 58.6899C95.9847 58.6379 95.9899 58.6014 96.0055 58.5858C96.016 58.5597 96.0264 58.5337 96.0264 58.5024C96.0264 58.3254 95.891 58.2316 95.6305 58.2316C95.4326 58.2316 95.1722 58.3358 94.8389 58.5441L94.068 58.9608C93.1774 59.4347 92.3649 59.6691 91.6305 59.6691C90.9222 59.6691 90.3597 59.4608 89.943 59.0441C89.516 58.6274 89.2972 58.1014 89.2972 57.4608C89.2972 56.6587 89.5993 55.8045 90.193 54.8983C90.7868 53.9972 91.5524 53.1483 92.4847 52.3566C93.4118 51.5649 94.3805 50.9295 95.3805 50.4399C96.391 49.9399 97.3024 49.6899 98.1097 49.6899C98.4691 49.6899 98.818 49.742 99.1514 49.8358C99.4847 49.9191 99.8024 50.0389 100.11 50.1899L100.339 50.2941C100.532 50.3931 100.735 50.4816 100.943 50.5649C101.162 50.6379 101.469 50.6691 101.86 50.6691C101.953 50.6274 102.047 50.6066 102.131 50.6066C102.349 50.6066 102.573 50.6795 102.797 50.8149C103.032 50.9556 103.151 51.1222 103.151 51.3149C103.151 51.4712 103.073 51.6222 102.922 51.7733C102.339 52.4712 101.787 53.2316 101.276 54.0649C100.776 54.8879 100.256 55.7108 99.7139 56.5441C99.1826 57.367 98.5524 58.1431 97.818 58.8774C97.7607 58.9347 97.7347 59.0129 97.7347 59.1066C97.7347 59.2056 97.7764 59.2524 97.8597 59.2524C98.0785 59.2524 98.4691 59.117 99.0264 58.8358C99.5941 58.5597 100.219 58.2004 100.901 57.7524C101.578 57.3097 102.24 56.8306 102.881 56.3149C103.516 55.7889 104.026 55.2837 104.401 54.7941C104.552 54.617 104.719 54.5233 104.901 54.5233C105.078 54.5233 105.235 54.5962 105.36 54.7316C105.485 54.8566 105.547 55.0024 105.547 55.1691C105.547 55.3097 105.485 55.4608 105.36 55.6274L105.318 55.6691C104.235 56.742 103.078 57.6847 101.86 58.5024C100.636 59.3097 99.3857 60.0024 98.1097 60.5858C97.4535 60.8931 96.9535 61.1639 96.6097 61.3983C96.2607 61.6222 95.9951 61.8358 95.818 62.0441C95.6514 62.2629 95.4639 62.5233 95.2555 62.8149C94.6149 63.742 94.0316 64.6379 93.5055 65.5024C92.9899 66.3774 92.391 67.1535 91.7139 67.8358L91.5889 67.9608C90.0472 69.5024 88.6722 70.6743 87.4639 71.4816C86.2555 72.2837 85.141 72.6899 84.1097 72.6899ZM82.2764 69.8358C82.2764 70.2629 82.4378 70.617 82.7555 70.8983C83.0785 71.1743 83.542 71.3149 84.1514 71.3149C85.042 71.3149 85.917 71.0285 86.7764 70.4608C87.6253 69.8879 88.443 69.1743 89.2347 68.3149C90.016 67.466 90.7191 66.591 91.3597 65.6899C91.9951 64.7837 92.5316 64.0024 92.9639 63.3358L93.0055 63.2733C93.0055 63.117 92.8805 63.0441 92.6305 63.0441C92.3232 63.0441 91.7972 63.1795 91.0472 63.4608C90.2972 63.7368 89.4795 64.0754 88.5889 64.4816C87.7035 64.8826 86.8962 65.2733 86.1722 65.6483C85.4378 66.0233 84.9326 66.3045 84.6514 66.5024C83.8337 67.0545 83.2347 67.6274 82.8597 68.2108C82.4743 68.8045 82.2764 69.3462 82.2764 69.8358ZM97.9639 51.0649C97.4066 51.0649 96.7607 51.242 96.0264 51.5858C95.2868 51.9191 94.568 52.367 93.8597 52.9191C93.1618 53.4608 92.5785 54.0441 92.1097 54.6691C91.6357 55.2941 91.4014 55.8983 91.4014 56.4816C91.4014 56.8879 91.5316 57.2056 91.7972 57.4399C92.0732 57.6639 92.4014 57.7733 92.7764 57.7733C93.3024 57.7733 93.943 57.5806 94.693 57.1899C95.443 56.7889 96.1774 56.2837 96.9014 55.6691C97.6357 55.0597 98.2399 54.4504 98.7139 53.8358C99.1982 53.2108 99.443 52.6691 99.443 52.2108C99.443 51.8514 99.3024 51.5754 99.0264 51.3774C98.7451 51.1691 98.391 51.0649 97.9639 51.0649Z" fill="#D9B056"/>
<path d="M108.449 59.7108C106.918 59.7108 105.793 59.4191 105.074 58.8358C104.355 58.2524 103.991 57.5181 103.991 56.6274C103.991 55.8097 104.23 54.992 104.699 54.1691C105.183 53.3358 105.824 52.5858 106.616 51.9191C107.407 51.242 108.251 50.7004 109.157 50.2941C110.058 49.8931 110.913 49.6899 111.72 49.6899C112.564 49.6899 113.246 49.8983 113.762 50.3149C114.288 50.7316 114.553 51.2629 114.553 51.8983C114.553 52.5806 114.262 53.1587 113.678 53.6274C113.105 54.1014 112.407 54.4816 111.574 54.7733C110.751 55.0649 109.928 55.2889 109.095 55.4399C108.262 55.5962 107.574 55.7004 107.032 55.7524C106.725 55.8097 106.522 55.9347 106.428 56.1274C106.329 56.3097 106.282 56.5129 106.282 56.7316C106.282 57.3722 106.574 57.8097 107.157 58.0441C107.741 58.2681 108.371 58.3774 109.053 58.3774C110.48 58.3774 111.808 58.0337 113.032 57.3358C114.267 56.6431 115.397 55.7837 116.428 54.7524C116.553 54.6274 116.704 54.5649 116.887 54.5649C117.053 54.5649 117.204 54.6274 117.345 54.7524C117.496 54.867 117.574 55.0024 117.574 55.1691C117.574 55.3254 117.501 55.4712 117.366 55.6066C116.1 56.8462 114.725 57.8358 113.241 58.5858C111.767 59.3358 110.168 59.7108 108.449 59.7108ZM111.699 51.5441C111.392 51.5441 110.991 51.6379 110.491 51.8149C109.991 51.9972 109.496 52.2264 109.012 52.5024C108.538 52.7837 108.126 53.0754 107.782 53.3774C107.433 53.6847 107.262 53.9712 107.262 54.2316C107.262 54.3983 107.397 54.4816 107.678 54.4816L107.866 54.4608C108.1 54.4087 108.475 54.3306 108.991 54.2316C109.517 54.1222 110.064 53.992 110.637 53.8358C111.204 53.6847 111.689 53.4816 112.095 53.2316C112.512 52.9816 112.72 52.6795 112.72 52.3149C112.72 52.0962 112.616 51.9139 112.407 51.7733C112.209 51.6222 111.975 51.5441 111.699 51.5441Z" fill="#D9B056"/>
</svg>
