<svg width="137" height="73" viewBox="0 0 137 73" fill="none" xmlns="http://www.w3.org/2000/svg">
<path d="M56.0446 48.6458L77.2321 29.0417C81.6904 24.8958 83.4196 21.2708 83.4196 16.1875C83.4196 7.14583 76.2738 0 67.2946 0C58.2738 0 51.0654 7.14583 51.0654 16.1875C51.0654 24.9583 58.2738 32.2292 66.9821 32.2292C68.9613 32.2292 70.4196 31.9583 72.2113 31.2708L54.7529 47.3125L56.0446 48.6458ZM67.1696 30.625C59.2113 30.625 52.9196 24.2083 52.9196 16.1875C52.9196 8.08333 59.2113 1.72917 67.1696 1.72917C75.2529 1.72917 81.5654 8.16667 81.5654 16.25C81.5654 24.2708 75.1904 30.625 67.1696 30.625Z" fill="white"/>
<path d="M22.0417 40.4526C22 40.9006 21.8333 41.4058 21.5417 41.9735C21.25 42.5308 20.8437 43.0881 20.3333 43.6401C19.8177 44.1974 19.1979 44.7183 18.4792 45.2026C17.7552 45.6766 16.9375 46.0568 16.0208 46.3485C15.1042 46.6297 14.1042 46.7651 13.0208 46.7651C11.5729 46.7651 10.1979 46.5516 8.89583 46.1193C7.60417 45.6766 6.41667 45.0516 5.33333 44.2443C4.25 43.4266 3.30208 42.4683 2.5 41.3693C1.70833 40.2756 1.08854 39.0724 0.645833 37.7651C0.213541 36.4474 0 35.0672 0 33.6193C0 32.161 0.213541 30.7808 0.645833 29.4735C1.08854 28.1558 1.70833 26.9474 2.5 25.8485C3.30208 24.7547 4.25 23.8016 5.33333 22.9943C6.41667 22.1922 7.60417 21.5672 8.89583 21.1193C10.1979 20.6766 11.5729 20.4526 13.0208 20.4526C14.1302 20.4526 15.1354 20.5672 16.0417 20.786C16.9427 20.9943 17.75 21.2651 18.4583 21.5985C19.1667 21.9318 19.7813 22.2808 20.3125 22.6401C20.8542 22.9891 21.3177 23.3068 21.7083 23.5985C22.1094 23.8901 22.4479 24.0985 22.7292 24.2235L19.8333 26.7651C19.9427 26.0881 19.8594 25.4318 19.5833 24.8068C19.3177 24.1818 18.875 23.6297 18.25 23.1401C17.625 22.6558 16.8542 22.2756 15.9375 21.9943C15.0313 21.7183 14.0052 21.5776 12.8542 21.5776C11.6979 21.5776 10.6042 21.786 9.5625 22.2026C8.52083 22.6089 7.5625 23.1766 6.6875 23.911C5.8125 24.6506 5.04687 25.5151 4.39583 26.5151C3.75521 27.5047 3.26042 28.5985 2.91667 29.8068C2.56771 31.0047 2.39583 32.2599 2.39583 33.5776C2.39583 34.911 2.56771 36.1766 2.91667 37.3693C3.26042 38.5672 3.75521 39.661 4.39583 40.661C5.04687 41.661 5.8125 42.5308 6.6875 43.2651C7.5625 43.9891 8.52083 44.5516 9.5625 44.9526C10.6042 45.3589 11.6979 45.5568 12.8542 45.5568C14.0052 45.5568 15.0417 45.4214 15.9583 45.1401C16.8854 44.8641 17.7083 44.5047 18.4167 44.0568C19.1354 43.6141 19.7396 43.1558 20.2292 42.6818C20.7292 42.1974 21.125 41.7599 21.4167 41.3693C21.7187 40.9683 21.9271 40.661 22.0417 40.4526Z" fill="white"/>
<path d="M42.7658 46.8485H24.2241C24.2241 46.8485 24.2918 46.8224 24.4325 46.7651C24.5835 46.7131 24.7502 46.5933 24.9325 46.411C25.1095 46.2339 25.271 45.9526 25.4116 45.5776C25.547 45.2026 25.62 44.6922 25.62 44.036V23.2651C25.62 22.6297 25.547 22.1193 25.4116 21.7443C25.271 21.3693 25.1095 21.0933 24.9325 20.911C24.7502 20.7183 24.5835 20.5933 24.4325 20.536C24.2918 20.4839 24.2241 20.4526 24.2241 20.4526H29.3283C29.3283 20.4526 29.2554 20.4839 29.12 20.536C28.9793 20.5776 28.8127 20.6974 28.62 20.8901C28.4377 21.0724 28.271 21.3589 28.12 21.7443C27.9793 22.1193 27.9116 22.6349 27.9116 23.286V44.036C27.9116 44.286 27.9168 44.5464 27.9325 44.8068C27.9585 45.0568 28.0262 45.2756 28.1408 45.4526C28.2502 45.6193 28.4325 45.7026 28.6825 45.7026C28.6825 45.7026 28.896 45.7026 29.3283 45.7026C29.7554 45.7026 30.4429 45.7026 31.3908 45.7026C32.3491 45.7026 33.6252 45.7026 35.2241 45.7026C36.5679 45.7026 37.6929 45.6193 38.5991 45.4526C39.5002 45.286 40.2293 45.0881 40.7866 44.8485C41.3387 44.5985 41.7554 44.3485 42.0366 44.0985C42.3283 43.8485 42.521 43.6401 42.62 43.4735C42.7137 43.3068 42.7658 43.2235 42.7658 43.2235V46.8485Z" fill="white"/>
<path d="M110.402 37.3068V23.2651C110.402 22.6297 110.324 22.1193 110.173 21.7443C110.032 21.3693 109.866 21.0933 109.673 20.911C109.491 20.7183 109.329 20.5933 109.194 20.536C109.053 20.4839 108.985 20.4526 108.985 20.4526H112.881C112.881 20.4526 112.808 20.4839 112.673 20.536C112.532 20.5776 112.366 20.6974 112.173 20.8901C111.975 21.0724 111.808 21.3589 111.673 21.7443C111.532 22.1193 111.465 22.6349 111.465 23.286V37.4318C111.465 39.2131 111.287 40.6974 110.944 41.8901C110.595 43.0881 110.053 44.0464 109.319 44.7651C108.595 45.4735 107.678 45.9891 106.569 46.3068C105.454 46.6141 104.142 46.7651 102.631 46.7651C101.173 46.7651 99.8447 46.6141 98.652 46.3068C97.4541 45.9891 96.4333 45.4683 95.5895 44.7443C94.7406 44.0256 94.0895 43.0568 93.6312 41.8485C93.1729 40.6401 92.9437 39.1558 92.9437 37.3901V23.2651C92.9437 22.6297 92.8708 22.1193 92.7354 21.7443C92.5947 21.3693 92.4333 21.0933 92.2562 20.911C92.0739 20.7183 91.9072 20.5933 91.7562 20.536C91.6156 20.4839 91.5479 20.4526 91.5479 20.4526H96.7145C96.7145 20.4526 96.6416 20.4839 96.5062 20.536C96.3656 20.5776 96.2041 20.6974 96.027 20.8901C95.8447 21.0724 95.6781 21.3589 95.527 21.7443C95.3708 22.1193 95.2979 22.6349 95.2979 23.286V37.3693C95.2979 39.0099 95.4906 40.3693 95.8812 41.4526C96.2822 42.5256 96.8239 43.3693 97.5062 43.9943C98.1989 44.6089 98.9854 45.0464 99.8604 45.3068C100.735 45.5568 101.657 45.6818 102.631 45.6818C103.907 45.6818 105.027 45.5568 105.985 45.3068C106.954 45.0464 107.767 44.5985 108.423 43.9735C109.074 43.3485 109.569 42.4943 109.902 41.411C110.235 40.3276 110.402 38.9631 110.402 37.3068Z" fill="white"/>
<path d="M121.249 20.4526C123.259 20.4526 125.082 20.6818 126.707 21.1401C128.332 21.5985 129.754 22.2391 130.978 23.0568C132.197 23.8797 133.228 24.8433 134.062 25.9526C134.895 27.0672 135.52 28.2808 135.937 29.5985C136.353 30.9058 136.562 32.2651 136.562 33.6818C136.562 35.4735 136.228 37.161 135.562 38.7443C134.905 40.3276 133.937 41.7339 132.645 42.9526C131.364 44.161 129.77 45.1141 127.853 45.8068C125.947 46.5047 123.749 46.8485 121.249 46.8485H114.374C114.374 46.8485 114.442 46.8224 114.582 46.7651C114.733 46.7131 114.9 46.5933 115.082 46.411C115.259 46.2339 115.421 45.9526 115.562 45.5776C115.697 45.2026 115.77 44.6922 115.77 44.036V23.2651C115.77 22.6297 115.697 22.1193 115.562 21.7443C115.421 21.3693 115.259 21.0933 115.082 20.911C114.9 20.7183 114.733 20.5933 114.582 20.536C114.442 20.4839 114.374 20.4526 114.374 20.4526C114.374 20.4526 114.671 20.4526 115.27 20.4526C115.864 20.4526 116.676 20.4526 117.707 20.4526C118.749 20.4526 119.926 20.4526 121.249 20.4526ZM121.249 45.7026C123.15 45.7026 124.884 45.4422 126.457 44.911C128.041 44.3693 129.405 43.5933 130.562 42.5776C131.728 41.5516 132.629 40.2964 133.27 38.8068C133.905 37.3224 134.228 35.6297 134.228 33.7235C134.228 31.8224 133.884 30.1297 133.207 28.6401C132.541 27.1558 131.608 25.8901 130.416 24.8485C129.218 23.8068 127.838 23.0256 126.27 22.4943C124.697 21.9526 123.025 21.6818 121.249 21.6818H119.395C119.296 21.6818 119.134 21.7183 118.916 21.786C118.692 21.8589 118.489 22.0099 118.312 22.2443C118.145 22.4683 118.062 22.8172 118.062 23.286C118.062 23.286 118.062 23.3172 118.062 23.3693C118.062 23.411 118.062 23.5516 118.062 23.786C118.062 24.0099 118.062 24.3901 118.062 24.9318C118.062 25.4631 118.062 26.2026 118.062 27.161C118.062 28.1193 118.062 29.3485 118.062 30.8485C118.062 32.3485 118.062 34.1818 118.062 36.3485C118.062 38.5047 118.062 41.0672 118.062 44.036C118.062 44.4683 118.124 44.8016 118.249 45.036C118.384 45.2599 118.546 45.4214 118.728 45.5151C118.905 45.6141 119.062 45.6714 119.187 45.6818C119.322 45.6974 119.395 45.7026 119.395 45.7026H121.249Z" fill="white"/>
<path d="M20.3018 58.1838C20.3018 58.0171 20.3538 57.866 20.4476 57.7254C21.0309 56.7671 21.6715 55.8296 22.3643 54.9129C23.0413 53.9963 23.7236 53.0692 24.4059 52.1213L26.3643 49.4963C26.6403 49.1369 26.958 48.9546 27.3226 48.9546C27.5413 48.9546 27.807 49.1629 28.1143 49.5796C28.1403 49.5952 28.1872 49.6369 28.2601 49.7046C28.3434 49.7775 28.432 49.8088 28.5309 49.8088C28.6247 49.8088 28.7497 49.7671 28.9059 49.6838C29.208 49.5067 29.5778 49.3713 30.0101 49.2879C30.4528 49.1942 30.833 49.1421 31.1559 49.1421C31.458 49.1421 31.7393 49.1838 31.9893 49.2671C32.2497 49.34 32.4476 49.5171 32.5726 49.8088L32.6559 49.9546C32.7809 50.2046 32.9476 50.3296 33.1559 50.3296C33.2809 50.3296 33.3955 50.3088 33.5101 50.2671C33.6195 50.215 33.7393 50.1421 33.8643 50.0588C34.307 49.7827 34.807 49.5588 35.3643 49.3921C35.9163 49.215 36.4268 49.1213 36.8851 49.1213C37.3955 49.1213 37.8278 49.2567 38.1768 49.5171C38.5361 49.7827 38.7184 50.1942 38.7184 50.7463C38.7184 51.3192 38.4893 51.9858 38.0309 52.7463L35.8643 55.7046C35.5986 56.0692 35.4163 56.3817 35.3226 56.6421C35.2236 56.9077 35.1768 57.116 35.1768 57.2671C35.1768 57.5067 35.2861 57.6213 35.5101 57.6213C35.7861 57.6213 36.1559 57.491 36.6143 57.2254C37.0726 56.9494 37.5518 56.616 38.0518 56.2254C38.5518 55.84 38.9945 55.465 39.3851 55.1004C39.7705 54.741 40.0413 54.4858 40.1976 54.3296C40.583 53.9546 40.9163 53.7671 41.1976 53.7671C41.557 53.7671 41.7393 53.9233 41.7393 54.2254C41.7393 54.4494 41.6038 54.7046 41.3434 54.9963L41.3226 55.0171C40.833 55.5067 40.2236 56.0588 39.4893 56.6838C38.7653 57.3088 37.9997 57.8504 37.1976 58.3088C36.4059 58.7671 35.6559 58.9963 34.9476 58.9963C33.8747 58.9963 33.3434 58.5119 33.3434 57.5379C33.3434 56.8869 33.6038 56.1213 34.1351 55.2463C34.3695 54.8713 34.6351 54.4754 34.9268 54.0588C35.2184 53.6317 35.4893 53.2567 35.7393 52.9338L36.2809 52.2046C36.458 51.9702 36.5726 51.7775 36.6143 51.6213C36.6663 51.4546 36.6976 51.3192 36.6976 51.2046C36.6976 50.9025 36.5309 50.7463 36.1976 50.7463C35.7393 50.7463 35.2393 50.9077 34.6976 51.2254C34.1663 51.5483 33.6663 51.9233 33.1976 52.3504C32.7393 52.7671 32.3434 53.1525 32.0101 53.4963L28.3434 58.6004C28.1195 58.9077 27.8538 59.0588 27.5518 59.0588C27.3122 59.0588 27.1038 58.9754 26.9268 58.8088C26.7445 58.6317 26.6559 58.4233 26.6559 58.1838C26.6559 58.0171 26.708 57.866 26.8226 57.7254L30.4059 52.6629C30.583 52.4546 30.6768 52.1838 30.6768 51.8504C30.6768 51.5744 30.583 51.3452 30.4059 51.1629C30.2236 50.9702 29.9476 50.8713 29.5726 50.8713C29.0309 50.8713 28.3486 51.1369 27.5309 51.6629C26.7236 52.1785 25.833 53.0796 24.8643 54.3713L21.9684 58.6004C21.7497 58.9077 21.484 59.0588 21.1768 59.0588C20.9424 59.0588 20.7393 58.9754 20.5726 58.8088C20.3955 58.6317 20.3018 58.4233 20.3018 58.1838Z" fill="#D9B056"/>
<path d="M39.437 56.7463C39.437 55.9285 39.7287 55.0744 40.312 54.1838C40.8953 53.2983 41.6453 52.465 42.562 51.6838C43.4787 50.9077 44.437 50.2827 45.437 49.8088C46.4474 49.3244 47.3589 49.0796 48.1662 49.0796C48.5256 49.0796 48.8641 49.1317 49.187 49.2254C49.5047 49.3244 49.8224 49.4442 50.1453 49.5796L50.3537 49.6421C50.5724 49.7567 50.7912 49.8504 50.9995 49.9338C51.2183 50.0067 51.5099 50.0379 51.8745 50.0379C52.0256 49.9858 52.1349 49.9546 52.2078 49.9546C52.4683 49.9546 52.6922 50.0483 52.8745 50.2254C53.0672 50.3921 53.1662 50.5952 53.1662 50.8296C53.1662 50.9285 53.1245 51.0483 53.0412 51.1838C52.9683 51.3088 52.8328 51.4546 52.6245 51.6213C52.3745 51.8035 52.0464 52.0952 51.6453 52.4963C51.2547 52.8869 50.8641 53.3296 50.4787 53.8296C50.0881 54.3192 49.7547 54.8192 49.4787 55.3296C49.2131 55.8452 49.0828 56.3035 49.0828 56.7046C49.0828 56.8869 49.1297 57.0535 49.2287 57.2046C49.3381 57.3608 49.562 57.4338 49.8953 57.4338C50.4787 57.4338 51.1037 57.2254 51.7703 56.8088C52.4474 56.3817 53.0881 55.9129 53.687 55.4129C54.2808 54.9025 54.7495 54.5067 55.0828 54.2254C55.3589 53.991 55.5933 53.8713 55.7912 53.8713C56.1766 53.8713 56.3745 54.0692 56.3745 54.4546C56.3745 54.6629 56.2703 54.866 56.062 55.0588C55.4787 55.5744 54.7756 56.1629 53.9578 56.8296C53.1506 57.4858 52.312 58.0483 51.437 58.5171C50.5724 58.991 49.7547 59.2254 48.9787 59.2254C48.437 59.2254 47.9578 59.0952 47.5412 58.8296C47.1245 58.5535 46.8381 58.1785 46.687 57.7046C46.6037 57.5275 46.4631 57.4338 46.2703 57.4338C46.0881 57.4338 45.8745 57.4963 45.6245 57.6213C45.3849 57.7463 45.1297 57.9025 44.8537 58.0796L44.0203 58.6004C43.6297 58.866 43.2547 59.0327 42.8953 59.1004C42.5464 59.1577 42.2183 59.1838 41.9162 59.1838C41.1766 59.1838 40.5828 58.9546 40.1245 58.4963C39.6662 58.0379 39.437 57.4546 39.437 56.7463ZM41.562 55.9338C41.562 56.7567 41.9839 57.1629 42.8328 57.1629C43.3328 57.1629 43.9474 56.965 44.687 56.5588C45.437 56.1421 46.1662 55.6317 46.8745 55.0171C47.5828 54.3921 48.1714 53.7567 48.6453 53.1004C49.1141 52.4494 49.3537 51.8921 49.3537 51.4338C49.3537 51.09 49.2339 50.8244 48.9995 50.6421C48.7756 50.465 48.4839 50.3713 48.1245 50.3713C47.5933 50.3713 46.9631 50.5535 46.2287 50.9129C45.4891 51.2619 44.7599 51.7202 44.0412 52.2879C43.3328 52.8452 42.7391 53.4494 42.2703 54.1004C41.7964 54.741 41.562 55.3504 41.562 55.9338Z" fill="#D9B056"/>
<path d="M53.084 57.9546C53.084 57.3035 53.4069 56.9754 54.0423 56.9754C54.5736 56.9754 54.9277 57.241 55.1048 57.7671C55.2298 58.1004 55.4434 58.3504 55.7507 58.5171C56.0527 58.6838 56.3757 58.7671 56.709 58.7671C57.2923 58.7671 57.86 58.5796 58.4173 58.2046C58.985 57.8192 59.2715 57.3296 59.2715 56.7463C59.2715 56.4858 59.2142 56.0952 59.1048 55.5796C59.0059 55.0535 58.8757 54.5692 58.709 54.1213C58.5423 53.6785 58.3444 53.4546 58.1257 53.4546C57.9694 53.4546 57.6882 53.59 57.2715 53.8504C56.8652 54.1004 56.4798 54.4858 56.1048 54.9963C55.9902 55.1525 55.8444 55.2254 55.6673 55.2254C55.5007 55.2254 55.3444 55.1577 55.209 55.0171C55.0736 54.866 55.0007 54.7046 55.0007 54.5379C55.0007 54.4025 55.0371 54.2983 55.1048 54.2254L56.6257 52.7046L57.9173 51.2879C58.36 50.8608 58.7819 50.4285 59.1882 49.9963C59.5892 49.5692 60.0059 49.1994 60.4382 48.8921C60.7402 48.6838 61.0736 48.4963 61.4382 48.3296C61.8132 48.1629 62.1673 48.0796 62.5007 48.0796C62.7767 48.0796 63.0267 48.1577 63.2507 48.3088C63.485 48.465 63.6048 48.6942 63.6048 48.9963C63.6048 49.2775 63.5215 49.465 63.3548 49.5588C63.1986 49.6421 63.0527 49.715 62.9173 49.7671C62.1361 50.0171 61.5319 50.366 61.1048 50.8088C60.6882 51.2567 60.4798 51.8608 60.4798 52.6213C60.4798 52.8035 60.5007 53.0952 60.5423 53.4963C60.584 53.9025 60.6465 54.3244 60.7298 54.7671C60.8132 55.1994 60.9434 55.5692 61.1257 55.8713C61.3027 56.1785 61.5319 56.3296 61.8132 56.3296C62.0736 56.3296 62.3965 56.2202 62.7715 55.9963C63.1465 55.7619 63.5423 55.4754 63.959 55.1421C64.3861 54.8088 64.7559 54.491 65.0632 54.1838V54.1421C65.1882 54.0171 65.3548 53.9546 65.5632 53.9546C65.7559 53.9546 65.9173 54.0171 66.0423 54.1421C66.1777 54.2567 66.2507 54.3869 66.2507 54.5379C66.2507 54.7046 66.1725 54.866 66.0215 55.0171L65.9382 55.0588C65.5736 55.4233 65.0944 55.8296 64.5007 56.2879C63.9017 56.7463 63.2819 57.1994 62.6465 57.6421C62.0215 58.09 61.4486 58.4754 60.9382 58.8088C60.4382 59.1317 60.084 59.3452 59.8757 59.4546C59.4434 59.7879 58.959 60.0535 58.4173 60.2463C57.8861 60.4285 57.3652 60.5171 56.8548 60.5171C56.3236 60.5171 55.7715 60.4233 55.1882 60.2254C54.6048 60.0171 54.1152 59.7254 53.709 59.3504C53.2923 58.965 53.084 58.4963 53.084 57.9546Z" fill="#D9B056"/>
<path d="M62.9971 57.9546C62.9971 57.3035 63.32 56.9754 63.9554 56.9754C64.4867 56.9754 64.8408 57.241 65.0179 57.7671C65.1429 58.1004 65.3564 58.3504 65.6637 58.5171C65.9658 58.6838 66.2887 58.7671 66.6221 58.7671C67.2054 58.7671 67.7731 58.5796 68.3304 58.2046C68.8981 57.8192 69.1846 57.3296 69.1846 56.7463C69.1846 56.4858 69.1273 56.0952 69.0179 55.5796C68.9189 55.0535 68.7887 54.5692 68.6221 54.1213C68.4554 53.6785 68.2575 53.4546 68.0387 53.4546C67.8825 53.4546 67.6012 53.59 67.1846 53.8504C66.7783 54.1004 66.3929 54.4858 66.0179 54.9963C65.9033 55.1525 65.7575 55.2254 65.5804 55.2254C65.4137 55.2254 65.2575 55.1577 65.1221 55.0171C64.9867 54.866 64.9137 54.7046 64.9137 54.5379C64.9137 54.4025 64.9502 54.2983 65.0179 54.2254L66.5387 52.7046L67.8304 51.2879C68.2731 50.8608 68.695 50.4285 69.1012 49.9963C69.5023 49.5692 69.9189 49.1994 70.3512 48.8921C70.6533 48.6838 70.9867 48.4963 71.3512 48.3296C71.7262 48.1629 72.0804 48.0796 72.4137 48.0796C72.6898 48.0796 72.9398 48.1577 73.1637 48.3088C73.3981 48.465 73.5179 48.6942 73.5179 48.9963C73.5179 49.2775 73.4346 49.465 73.2679 49.5588C73.1117 49.6421 72.9658 49.715 72.8304 49.7671C72.0492 50.0171 71.445 50.366 71.0179 50.8088C70.6012 51.2567 70.3929 51.8608 70.3929 52.6213C70.3929 52.8035 70.4137 53.0952 70.4554 53.4963C70.4971 53.9025 70.5596 54.3244 70.6429 54.7671C70.7262 55.1994 70.8564 55.5692 71.0387 55.8713C71.2158 56.1785 71.445 56.3296 71.7262 56.3296C71.9867 56.3296 72.3096 56.2202 72.6846 55.9963C73.0596 55.7619 73.4554 55.4754 73.8721 55.1421C74.2992 54.8088 74.6689 54.491 74.9762 54.1838V54.1421C75.1012 54.0171 75.2679 53.9546 75.4762 53.9546C75.6689 53.9546 75.8304 54.0171 75.9554 54.1421C76.0908 54.2567 76.1637 54.3869 76.1637 54.5379C76.1637 54.7046 76.0856 54.866 75.9346 55.0171L75.8512 55.0588C75.4867 55.4233 75.0075 55.8296 74.4137 56.2879C73.8148 56.7463 73.195 57.1994 72.5596 57.6421C71.9346 58.09 71.3617 58.4754 70.8512 58.8088C70.3512 59.1317 69.9971 59.3452 69.7887 59.4546C69.3564 59.7879 68.8721 60.0535 68.3304 60.2463C67.7992 60.4285 67.2783 60.5171 66.7679 60.5171C66.2367 60.5171 65.6846 60.4233 65.1012 60.2254C64.5179 60.0171 64.0283 59.7254 63.6221 59.3504C63.2054 58.965 62.9971 58.4963 62.9971 57.9546Z" fill="#D9B056"/>
<path d="M74.0557 56.7463C74.0557 55.9285 74.3473 55.0744 74.9307 54.1838C75.514 53.2983 76.264 52.465 77.1807 51.6838C78.0973 50.9077 79.0557 50.2827 80.0557 49.8088C81.0661 49.3244 81.9775 49.0796 82.7848 49.0796C83.1442 49.0796 83.4827 49.1317 83.8057 49.2254C84.1234 49.3244 84.4411 49.4442 84.764 49.5796L84.9723 49.6421C85.1911 49.7567 85.4098 49.8504 85.6182 49.9338C85.8369 50.0067 86.1286 50.0379 86.4932 50.0379C86.6442 49.9858 86.7536 49.9546 86.8265 49.9546C87.0869 49.9546 87.3109 50.0483 87.4932 50.2254C87.6859 50.3921 87.7848 50.5952 87.7848 50.8296C87.7848 50.9285 87.7432 51.0483 87.6598 51.1838C87.5869 51.3088 87.4515 51.4546 87.2432 51.6213C86.9932 51.8035 86.665 52.0952 86.264 52.4963C85.8734 52.8869 85.4827 53.3296 85.0973 53.8296C84.7067 54.3192 84.3734 54.8192 84.0973 55.3296C83.8317 55.8452 83.7015 56.3035 83.7015 56.7046C83.7015 56.8869 83.7484 57.0535 83.8473 57.2046C83.9567 57.3608 84.1807 57.4338 84.514 57.4338C85.0973 57.4338 85.7223 57.2254 86.389 56.8088C87.0661 56.3817 87.7067 55.9129 88.3057 55.4129C88.8994 54.9025 89.3682 54.5067 89.7015 54.2254C89.9775 53.991 90.2119 53.8713 90.4098 53.8713C90.7952 53.8713 90.9932 54.0692 90.9932 54.4546C90.9932 54.6629 90.889 54.866 90.6807 55.0588C90.0973 55.5744 89.3942 56.1629 88.5765 56.8296C87.7692 57.4858 86.9307 58.0483 86.0557 58.5171C85.1911 58.991 84.3734 59.2254 83.5973 59.2254C83.0557 59.2254 82.5765 59.0952 82.1598 58.8296C81.7432 58.5535 81.4567 58.1785 81.3057 57.7046C81.2223 57.5275 81.0817 57.4338 80.889 57.4338C80.7067 57.4338 80.4932 57.4963 80.2432 57.6213C80.0036 57.7463 79.7484 57.9025 79.4723 58.0796L78.639 58.6004C78.2484 58.866 77.8734 59.0327 77.514 59.1004C77.165 59.1577 76.8369 59.1838 76.5348 59.1838C75.7952 59.1838 75.2015 58.9546 74.7432 58.4963C74.2848 58.0379 74.0557 57.4546 74.0557 56.7463ZM76.1807 55.9338C76.1807 56.7567 76.6025 57.1629 77.4515 57.1629C77.9515 57.1629 78.5661 56.965 79.3057 56.5588C80.0557 56.1421 80.7848 55.6317 81.4932 55.0171C82.2015 54.3921 82.79 53.7567 83.264 53.1004C83.7327 52.4494 83.9723 51.8921 83.9723 51.4338C83.9723 51.09 83.8525 50.8244 83.6182 50.6421C83.3942 50.465 83.1025 50.3713 82.7432 50.3713C82.2119 50.3713 81.5817 50.5535 80.8473 50.9129C80.1077 51.2619 79.3786 51.7202 78.6598 52.2879C77.9515 52.8452 77.3577 53.4494 76.889 54.1004C76.415 54.741 76.1807 55.3504 76.1807 55.9338Z" fill="#D9B056"/>
<path d="M83.536 72.0796C82.5516 72.0796 81.7599 71.7983 81.161 71.2463C80.5672 70.7046 80.2651 70.0275 80.2651 69.2254C80.2651 68.5588 80.4891 67.84 80.9318 67.0796C81.3797 66.314 82.1089 65.5796 83.1193 64.8713C84.0099 64.2306 85.0099 63.689 86.1193 63.2463C87.2339 62.7983 88.4006 62.3348 89.6193 61.8504L93.2026 60.4129C93.2964 60.3608 93.4943 60.2463 93.786 60.0796C94.0776 59.9129 94.3589 59.6317 94.6401 59.2254L95.411 58.0796C95.411 58.0275 95.4162 57.991 95.4318 57.9754C95.4422 57.9494 95.4526 57.9233 95.4526 57.8921C95.4526 57.715 95.3172 57.6213 95.0568 57.6213C94.8589 57.6213 94.5985 57.7254 94.2651 57.9338L93.4943 58.3504C92.6037 58.8244 91.7912 59.0588 91.0568 59.0588C90.3485 59.0588 89.786 58.8504 89.3693 58.4338C88.9422 58.0171 88.7235 57.491 88.7235 56.8504C88.7235 56.0483 89.0256 55.1942 89.6193 54.2879C90.2131 53.3869 90.9787 52.5379 91.911 51.7463C92.8381 50.9546 93.8068 50.3192 94.8068 49.8296C95.8172 49.3296 96.7287 49.0796 97.536 49.0796C97.8953 49.0796 98.2443 49.1317 98.5776 49.2254C98.911 49.3088 99.2287 49.4285 99.536 49.5796L99.7651 49.6838C99.9578 49.7827 100.161 49.8713 100.369 49.9546C100.588 50.0275 100.895 50.0588 101.286 50.0588C101.38 50.0171 101.473 49.9963 101.557 49.9963C101.776 49.9963 102 50.0692 102.223 50.2046C102.458 50.3452 102.578 50.5119 102.578 50.7046C102.578 50.8608 102.5 51.0119 102.348 51.1629C101.765 51.8608 101.213 52.6213 100.703 53.4546C100.203 54.2775 99.6818 55.1004 99.1401 55.9338C98.6089 56.7567 97.9787 57.5327 97.2443 58.2671C97.187 58.3244 97.161 58.4025 97.161 58.4963C97.161 58.5952 97.2026 58.6421 97.286 58.6421C97.5047 58.6421 97.8953 58.5067 98.4526 58.2254C99.0203 57.9494 99.6453 57.59 100.328 57.1421C101.005 56.6994 101.666 56.2202 102.307 55.7046C102.942 55.1785 103.453 54.6733 103.828 54.1838C103.979 54.0067 104.145 53.9129 104.328 53.9129C104.505 53.9129 104.661 53.9858 104.786 54.1213C104.911 54.2463 104.973 54.3921 104.973 54.5588C104.973 54.6994 104.911 54.8504 104.786 55.0171L104.744 55.0588C103.661 56.1317 102.505 57.0744 101.286 57.8921C100.062 58.6994 98.812 59.3921 97.536 59.9754C96.8797 60.2827 96.3797 60.5535 96.036 60.7879C95.687 61.0119 95.4214 61.2254 95.2443 61.4338C95.0776 61.6525 94.8901 61.9129 94.6818 62.2046C94.0412 63.1317 93.4578 64.0275 92.9318 64.8921C92.4162 65.7671 91.8172 66.5431 91.1401 67.2254L91.0151 67.3504C89.4735 68.8921 88.0985 70.064 86.8901 70.8713C85.6818 71.6733 84.5672 72.0796 83.536 72.0796ZM81.7026 69.2254C81.7026 69.6525 81.8641 70.0067 82.1818 70.2879C82.5047 70.564 82.9683 70.7046 83.5776 70.7046C84.4683 70.7046 85.3433 70.4181 86.2026 69.8504C87.0516 69.2775 87.8693 68.564 88.661 67.7046C89.4422 66.8556 90.1453 65.9806 90.786 65.0796C91.4214 64.1733 91.9578 63.3921 92.3901 62.7254L92.4318 62.6629C92.4318 62.5067 92.3068 62.4338 92.0568 62.4338C91.7495 62.4338 91.2235 62.5692 90.4735 62.8504C89.7235 63.1265 88.9058 63.465 88.0151 63.8713C87.1297 64.2723 86.3224 64.6629 85.5985 65.0379C84.8641 65.4129 84.3589 65.6942 84.0776 65.8921C83.2599 66.4442 82.661 67.0171 82.286 67.6004C81.9006 68.1942 81.7026 68.7358 81.7026 69.2254ZM97.3901 50.4546C96.8328 50.4546 96.187 50.6317 95.4526 50.9754C94.7131 51.3088 93.9943 51.7567 93.286 52.3088C92.5881 52.8504 92.0047 53.4338 91.536 54.0588C91.062 54.6838 90.8276 55.2879 90.8276 55.8713C90.8276 56.2775 90.9578 56.5952 91.2235 56.8296C91.4995 57.0535 91.8276 57.1629 92.2026 57.1629C92.7287 57.1629 93.3693 56.9702 94.1193 56.5796C94.8693 56.1785 95.6037 55.6733 96.3276 55.0588C97.062 54.4494 97.6662 53.84 98.1401 53.2254C98.6245 52.6004 98.8693 52.0588 98.8693 51.6004C98.8693 51.241 98.7287 50.965 98.4526 50.7671C98.1714 50.5588 97.8172 50.4546 97.3901 50.4546Z" fill="#D9B056"/>
<path d="M107.875 59.1004C106.344 59.1004 105.219 58.8088 104.5 58.2254C103.782 57.6421 103.417 56.9077 103.417 56.0171C103.417 55.1994 103.657 54.3817 104.125 53.5588C104.61 52.7254 105.25 51.9754 106.042 51.3088C106.834 50.6317 107.677 50.09 108.584 49.6838C109.485 49.2827 110.339 49.0796 111.146 49.0796C111.99 49.0796 112.672 49.2879 113.188 49.7046C113.714 50.1213 113.979 50.6525 113.979 51.2879C113.979 51.9702 113.688 52.5483 113.104 53.0171C112.532 53.491 111.834 53.8713 111 54.1629C110.177 54.4546 109.354 54.6785 108.521 54.8296C107.688 54.9858 107 55.09 106.459 55.1421C106.151 55.1994 105.948 55.3244 105.854 55.5171C105.756 55.6994 105.709 55.9025 105.709 56.1213C105.709 56.7619 106 57.1994 106.584 57.4338C107.167 57.6577 107.797 57.7671 108.479 57.7671C109.907 57.7671 111.235 57.4233 112.459 56.7254C113.693 56.0327 114.823 55.1733 115.854 54.1421C115.979 54.0171 116.131 53.9546 116.313 53.9546C116.479 53.9546 116.631 54.0171 116.771 54.1421C116.922 54.2567 117 54.3921 117 54.5588C117 54.715 116.927 54.8608 116.792 54.9963C115.526 56.2358 114.151 57.2254 112.667 57.9754C111.193 58.7254 109.594 59.1004 107.875 59.1004ZM111.125 50.9338C110.818 50.9338 110.417 51.0275 109.917 51.2046C109.417 51.3869 108.922 51.616 108.438 51.8921C107.964 52.1733 107.552 52.465 107.209 52.7671C106.86 53.0744 106.688 53.3608 106.688 53.6213C106.688 53.7879 106.823 53.8713 107.104 53.8713L107.292 53.8504C107.526 53.7983 107.901 53.7202 108.417 53.6213C108.943 53.5119 109.49 53.3817 110.063 53.2254C110.631 53.0744 111.115 52.8713 111.521 52.6213C111.938 52.3713 112.146 52.0692 112.146 51.7046C112.146 51.4858 112.042 51.3035 111.834 51.1629C111.636 51.0119 111.401 50.9338 111.125 50.9338Z" fill="#D9B056"/>
</svg>
